<svg xmlns="http://www.w3.org/2000/svg" viewBox="0 0 489 590" width="489" height="590"><defs><linearGradient id="grd1" gradientUnits="userSpaceOnUse" x1="255.689" y1="659.422" x2="255.689" y2="141.154"><stop offset="0" stop-color="#fbdde9"></stop><stop offset="1" stop-color="#ffeef5" stop-opacity="0"></stop></linearGradient></defs><style>tspan{white-space:pre}.svg-empty-cart-variant-6-shp0{opacity:.502;fill:url(#grd1)}.svg-empty-cart-variant-6-shp1{fill:#feecec}.svg-empty-cart-variant-6-shp2{fill:#771212}.svg-empty-cart-variant-6-shp3{fill:#f0dfdc}.svg-empty-cart-variant-6-shp4{fill:#d9b3b3}.svg-empty-cart-variant-6-shp5{fill:#d06060}.svg-empty-cart-variant-6-shp6{fill:#ffc4c0}.svg-empty-cart-variant-6-shp7{fill:#fff4f2}.svg-empty-cart-variant-6-shp8{fill:#ff9595}.svg-empty-cart-variant-6-shp9{fill:#fff}.svg-empty-cart-variant-6-shp10{fill:#dcbdd8}.svg-empty-cart-variant-6-shp11{fill:#ce8a89}</style><path class="svg-empty-cart-variant-6-shp0" d="M49.64 495.81c70.97 85.82 120.22 93.72 212.26 94.18 134.17.65 206.51-55.7 216.77-178.08 42.6-236.15-60.31-337.7-60.31-337.7-53.37-49.04-104.78-111.35-283.92-46.12C29.95 66.14-59.17 364.38 49.64 495.81z"></path><path class="svg-empty-cart-variant-6-shp1" d="M237 504c-49.22 0-89-9.39-89-21s39.78-21 89-21 89 9.39 89 21-39.78 21-89 21z"></path><path fill-rule="evenodd" class="svg-empty-cart-variant-6-shp2" d="M244.72 336l63.16 33.47c1.37.76 2.59 1.67 3.51 3.04l36.46 46.1-75.06-14.76L244.72 336z"></path><path fill-rule="evenodd" class="svg-empty-cart-variant-6-shp3" d="M272.94 381.64L348 418.61l-47.75 19.47s3.66 4.11-5.03 10.19l4.11 38.95c.31 2.13-1.37 4.11-3.66 4.11l-78.56 1.82-17.39-73.02 28.83-31.95 44.39-6.54z"></path><path fill-rule="evenodd" class="svg-empty-cart-variant-6-shp4" d="M166.15 477.33c2.14-3.19 9.31-14 10.07-15.21l.15-.16 3.66-11.25v-.31l-2.13-50.96c-.15-4.26 1.68-8.22 4.88-10.95l61.18-51.88c.45-.31 1.06-.31 1.37.15l27.31 44.27c.15.3.15.91-.16 1.07l-28.68 24.34c-.45.3-.45 1.06 0 1.37l3.05 2.28c.46.3.46 1.22 0 1.52l-19.83 11.56c-.3.15-.46.31-.46.61l-9.3 68.31c0 .45-.61.91-1.07.76-5.49-1.22-33.71-7.61-49.73-14.15-.46-.31-.61-.91-.31-1.37z"></path><path class="svg-empty-cart-variant-6-shp5" d="M319.93 451.32c-.61 0-1.37 0-1.98-.16-8.7-.91-13.43-8.97-15.87-15.51-2.44-6.54-3.05-12.78-3.05-13.09v-.45c.15-7.46.15-15.22-.61-21-.76-6.54-2.14-8.52-2.9-9.12-.15-.16-.76-.61-2.29-.16-1.83.46-3.81-.76-4.27-2.58-.46-1.83.76-3.81 2.59-4.26 3.97-.92 6.72.3 8.39 1.52 5.5 4.41 6.41 15.36 6.11 35.44.61 6.09 4.12 21.15 12.66 22.06 4.73.46 9.15-1.82 11.59-6.08 1.99-3.35 5.34-12.93-6.1-29.06-1.07-1.52-.76-3.8.92-4.87 1.52-1.06 3.81-.76 4.88.92 9.76 13.69 12.05 27.08 6.41 36.66-3.51 6.24-9.77 9.74-16.48 9.74z"></path><path fill-rule="evenodd" class="svg-empty-cart-variant-6-shp2" d="M261.5 455.57c-.15-2.12-3.51-2.12-3.2 0 .3 3.05.3 5.94 0 8.98-.16 1.68-.16 5.33-1.99 6.39-1.83 1.22-3.5-3.35-3.96-4.56-.92-2.74-1.22-5.63-1.07-8.52.15-2.13-3.05-2.13-3.2 0-.31 3.65.3 7.45 1.67 10.95 1.22 2.74 3.36 6.39 6.87 5.48 2.9-.76 3.96-3.96 4.42-6.54.77-3.96.92-8.07.46-12.18zM279.2 458.77c0-2.13-3.36-2.13-3.21 0 0 2.28-.15 4.56-.76 6.85-.46 1.52-1.07 3.95-2.74 4.87-1.68.91-2.75-2.29-3.06-3.5-.45-1.98-.45-3.96.46-5.79.92-1.82-1.98-3.49-2.9-1.67-1.22 2.74-1.52 5.78-.61 8.83.76 2.58 2.6 5.78 5.65 5.62 2.9-.15 4.57-2.89 5.49-5.17 1.22-3.19 1.68-6.54 1.68-10.04zM255.09 491.48c-5.03.3-10.22.76-15.4 1.06-.31 0-.46-.15-.62-.15-1.22.61-3.05-.3-2.28-1.82 2.13-4.26 6.25-7.15 10.98-7.46 4.27-.3 9.15 2.13 9.15 6.85 0 .91-.91 1.37-1.83 1.52zm-2.44-3.96c0 .31-.15.61-.3.76h.91c-.15-.3-.3-.45-.61-.76z"></path><path class="svg-empty-cart-variant-6-shp5" d="M272.18 344.06c-.92-.76-1.98-1.06-3.05-1.06-.31-.31-.76-.46-1.22-.61-3.36-1.07-5.34 2.28-6.26 4.87-.15.45-.15.91.16 1.22.15 1.97 1.83 3.8 3.81 4.1.92.15 1.83.15 2.75-.3.76.3 1.83-.15 2.13-1.07 0-.15.15-.3.15-.45.31.3.61.45.92.45.61.31 1.37-.15 1.68-.76 1.22-1.97.91-4.87-1.07-6.39zM299.33 360.04c-.61-1.52-1.98-2.44-3.66-2.59-1.67-.15-3.2.91-3.66 2.43-.61 1.83.46 3.5 1.68 4.57.15.15.31.3.46.3.3.76.91 1.52 1.83 1.68 1.37.3 2.74-.46 3.2-1.83.46-1.37.76-3.04.15-4.56z"></path><path class="z-2 svg-empty-cart-variant-6-shp6" d="M175.25 337.43c2.06 1.34 4.02 2.7 6.19 3.79-.52.19-1.1.33-1.41.49-1.14.5-2.22 1.04-3.32 1.61-2.07 1.05-4.16 2.21-6.36 2.94-1.28.44-1.2 1.94-.31 2.53 3.4 2.26 7.27 3.71 10.88 5.6 1.49.78 2.82-1.71 1.34-2.49-2.8-1.46-5.75-2.64-8.52-4.17 1.58-.74 3.11-1.58 4.62-2.34 1.14-.56 2.27-1.12 3.43-1.56 1.37-.54 2.81-.93 3.5-2.39.31-.66.19-1.56-.51-1.81-3.03-1.16-5.53-2.96-8.2-4.69-1.41-.9-2.72 1.57-1.33 2.49z"></path><path class="svg-empty-cart-variant-6-shp7" d="M216 314c-14.67 0-14.67 22 0 22s14.67-22 0-22zM171.5 253c-23.33 0-23.33 37 0 37s23.33-37 0-37z"></path><path fill-rule="evenodd" class="svg-empty-cart-variant-6-shp7" d="M374.97 176.97c.7 15.7-10.79 29.64-25.05 34.4-2.44 16.76-18.61 30.17-35.32 30.17-2.95 0-5.91-.53-8.69-1.24-6.44 10.58-18.44 17.82-30.8 17.82-13.04 0-23.83-6.88-30.09-17.29-6.44 10.76-18.44 18.17-30.97 18.17-20 0-34.79-16.58-35.66-36.16-.17-4.94.7-9.71 2.61-14.12-2.26.53-4.87.89-7.31.89-20 0-34.79-16.59-35.66-36.17-.87-19.58 17.05-36.16 35.66-36.16 11.14 0 20.53 5.12 26.97 13.05-.35-1.94-.52-3.88-.7-5.99-.87-19.59 17.05-36.17 35.67-36.17 10.95 0 20.17 4.94 26.61 12.53C267.98 108 281.38 99 295.12 99c20.01 0 34.79 16.58 35.66 36.16 0 2.47-.17 4.77-.52 7.06 3.13-.88 6.26-1.41 9.39-1.41 20.01 0 34.8 16.58 35.32 36.16zm-164.92-8.11c-.35-.53-.87-.89-1.22-1.42.18.89.18 1.59.35 2.3.35-.18.52-.53.87-.88z"></path><path class="z-1 svg-empty-cart-variant-6-shp6" d="M116.43 323.95c3.6-.57 7.11-1.01 10.58-1.96-.38.71-.87 1.42-1.06 1.89-.74 1.62-1.38 3.24-2.03 4.89-1.22 3.1-2.34 6.34-4.02 9.24-.96 1.68.61 3.2 2.19 2.97 5.98-.88 11.68-3.07 17.54-4.56 2.41-.6 1.38-4.51-1.04-3.91-4.53 1.15-8.94 2.73-13.51 3.78 1-2.29 1.84-4.65 2.74-6.91.67-1.69 1.35-3.38 2.18-4.96.97-1.89 2.16-3.67 1.45-5.9-.32-.98-1.35-1.82-2.38-1.42-4.47 1.69-9.01 2.2-13.67 2.94-2.45.4-1.42 4.28 1.03 3.91z"></path><path class="z-3 svg-empty-cart-variant-6-shp8" d="M167.99 373.3c-.21-1.8-1.37-2.58-3.07-2.9-1.97-.35-3.97-.59-5.96-.81-3.89-.43-7.8-.61-11.71-.59-2.59.03-2.62 4.06 0 4.03 3.05-.03 6.07.08 9.12.35 1.48.13 2.94.27 4.39.45.06 0 .11.03.16.03-3.31 2.07-6.44 4.43-9.57 6.71-2.05 1.51-4.1 3.01-6.15 4.51-.7.51-1.38 1-2.08 1.48-.21.13-.43.27-.65.43-.02.03-.08.05-.1.08-1.87.54-1.81 3.36.08 3.87 6.71 1.77 13.35 4.59 19.5 7.81 2.29 1.21 4.34-2.28 2.05-3.49-5.15-2.71-10.68-5.15-16.32-6.98 1.83-1.32 3.64-2.66 5.45-4 4.45-3.25 8.93-6.69 13.86-9.21.57-.32 1.08-1.13 1-1.77z"></path><g><path class="svg-empty-cart-variant-6-shp9" d="M262.75 148.09s10.63-13.9 27.81 0c0 0 17.91 17.1 1.46 30 .14 0-27.96-11.45-29.27-30z"></path><path class="svg-empty-cart-variant-6-shp10" d="M264.35 145.92l-46.73 63.61c0 .14-.15.14-.15.28-3.93 7.97-2.32 10.87-.58 12.47l.15.14c.87 1.74 7.57-1.01 11.06-2.9l67.7-43.75s-5.53 2.89-31.45-29.85z"></path><path class="svg-empty-cart-variant-6-shp10" d="M218.49 208.22c11.21-13.04 34.65-36.51 61.3-44.33-4.08-4.35-9.17-10.15-15.44-17.97l-45.86 62.3z"></path><path class="svg-empty-cart-variant-6-shp7" d="M225.92 216.19c3.64 0 3.64-5.5 0-5.5-3.49 0-3.49 5.5 0 5.5zM235.53 210.69c16.3-10.58 32.61-21.3 49.5-31.16 3.05-1.88.29-6.66-2.77-4.78-16.74 10-33.05 20.58-49.5 31.15-2.91 1.89-.14 6.67 2.77 4.79z"></path><path class="svg-empty-cart-variant-6-shp5" d="M312.83 147.08c0-.14-.14-.29-.14-.29 0-.14-.15-.29-.15-.44-2.18-4.92-7.42-7.53-12.23-9.41-5.09-1.89-10.77-2.9-16.16-2.75-3.2 0-6.4.43-9.6 1.3-2.33.58-3.5 4.05-1.46 5.65 2.62 2.03 5.24 4.06 7.86 6.08 4.22 3.34 8.45 6.52 12.67 9.86.73.58 1.6 1.16 2.33 1.88.14.58.29 1.16.43 1.88.15.58.3 1.02.3 1.6v.87c.14 1.01.14 2.17.14 3.18 0 .44 0 1.02-.14 1.45 0 .29 0 .58-.15.87V169.1c-.44 2.03-.87 4.06-1.6 5.94-.29 1.02-1.31 3.34-1.46 3.62l-12.96 11.45c-1.31 1.02-.87 2.9.73 3.33l8.74 3.05c1.16.29 2.33-.15 3.06-1.02l10.77-16.08c5.53-6.09 9.02-13.91 9.9-22.31.44-3.34.44-6.96-.88-10z"></path><path class="svg-empty-cart-variant-6-shp11" d="M285.32 142.59c4.8 0 4.8-7.39 0-7.39-4.81 0-4.81 7.39 0 7.39z"></path><path class="svg-empty-cart-variant-6-shp3" d="M293.47 148.38c1.9-1.88 3.64-3.91 4.95-6.08 1.31-2.03-2.04-3.91-3.35-1.89a32.228 32.228 0 0 1-4.36 5.37c-1.75 1.59.87 4.34 2.76 2.6zM299.73 158.09c3.93-2.03 7.43-4.93 10.19-8.26 1.6-1.88-1.16-4.63-2.76-2.75-2.62 3.19-5.83 5.65-9.47 7.68-2.03 1.16-.14 4.49 2.04 3.33zM301.92 167.51c2.47.29 4.8-.29 7.13-1.45 2.18-1.02.29-4.35-1.89-3.33-1.6.72-3.35 1.01-5.1.87-2.62-.15-2.62 3.62-.14 3.91zM293.76 181.13c-3.78 2.9-7.28 6.08-10.33 9.71-.73.87.58 2.02 1.16 1.15 2.91-3.47 6.26-6.66 9.9-9.41 1.02-.58.15-2.03-.73-1.45zM295.95 183.88c-2.48 3.04-4.95 6.09-7.57 8.98-.73.87.43 2.03 1.16 1.16 2.62-3.04 5.1-5.94 7.57-8.98.73-.87-.43-2.03-1.16-1.16z"></path><path class="svg-empty-cart-variant-6-shp2" d="M285.46 136.79s-.14 0 0 0c-2.47 0-2.47 3.62-.14 3.62h.14c2.33 0 2.33-3.62 0-3.62z"></path><path class="svg-empty-cart-variant-6-shp5" d="M280.66 135.34c-4.95.29-23 2.61-17.33-7.39 1.61-2.75 4.66-4.49 7.87-5.21 2.33-.58 4.22-.44 6.26.72 1.45.44 2.33 1.45 2.62 2.9.29 4.35-1.31 5.22-5.1 2.46.29-.87-.87-1.59-1.16-.72-2.04 4.64 4.8 5.65 7.13 2.17 3.35-5.07-2.91-9.71-7.57-9.41-5.24.28-12.81 4.2-12.23 10.43.87 8.55 14.27 5.65 19.66 5.36.87 0 .87-1.31-.15-1.31z"></path></g></svg>